<svg xmlns="http://www.w3.org/2000/svg" viewBox="0 0 600 160" width="100%" height="100%" fill="none">
  <defs>
    <linearGradient id="wil-body" x1="0%" y1="0%" x2="100%" y2="0%">
      <stop offset="0%" stop-color="#020B1A" />
      <stop offset="35%" stop-color="#041E42" />
      <stop offset="85%" stop-color="#003580" />
      <stop offset="100%" stop-color="#00224F" />
    </linearGradient>
    <linearGradient id="wil-floor" x1="0%" y1="0%" x2="100%" y2="0%">
      <stop offset="0%" stop-color="#04070D" />
      <stop offset="50%" stop-color="#0B101C" />
      <stop offset="100%" stop-color="#060A12" />
    </linearGradient>
    <linearGradient id="wil-tire" x1="0%" y1="0%" x2="0%" y2="100%">
      <stop offset="0%" stop-color="#202632" />
      <stop offset="50%" stop-color="#111622" />
      <stop offset="100%" stop-color="#070A10" />
    </linearGradient>
    <radialGradient id="wil-wheel" cx="50%" cy="50%" r="50%">
      <stop offset="0%" stop-color="#1B2B48" />
      <stop offset="60%" stop-color="#0F182C" />
      <stop offset="100%" stop-color="#050810" />
    </radialGradient>
    <filter id="wil-shadow" x="-5%" y="-5%" width="115%" height="125%">
      <feDropShadow dx="0" dy="8" stdDeviation="6" flood-color="#000" flood-opacity="0.75" />
    </filter>
  </defs>

  <!-- Ground Shadow -->
  <ellipse cx="300" cy="138" rx="275" ry="8" fill="#000" opacity="0.6" />

  <g filter="url(#wil-shadow)">
    <!-- Floor & Underbody Venturi -->
    <path d="M75 118 L125 128 L430 128 L475 125 L475 130 L115 132 L68 123 Z" fill="url(#wil-floor)" />
    <path d="M68 123 L85 112 L95 126 Z" fill="#03060B" />
    <!-- Floor edge cyan stripe -->
    <path d="M140 128 L420 128" stroke="#00A0DE" stroke-width="1.8" />

    <!-- Rear Wing -->
    <path d="M48 52 L95 48 L108 85 L65 92 Z" fill="#081326" stroke="#00A0DE" stroke-width="1.5" />
    <path d="M52 54 L98 50 L96 58 L54 62 Z" fill="#041E42" />
    <path d="M54 64 L96 60 L94 67 L56 70 Z" fill="#00A0DE" />
    <rect x="72" y="46" width="6" height="7" rx="1.5" fill="#FFFFFF" /> <!-- White DRS Pod -->
    <path d="M96 56 C88 72, 92 88, 112 108 L118 108 C102 88, 98 72, 104 56 Z" fill="#101D35" />

    <!-- Shark Fin & Engine Cover -->
    <path d="M112 106 L108 68 C155 64, 210 52, 285 40 L285 54 C230 65, 175 78, 140 106 Z" fill="url(#wil-body)" />
    <path d="M108 68 L285 40 L285 43 L110 70 Z" fill="#00A0DE" />
    <!-- White & Electric Cyan Dynamic Swish -->
    <path d="M165 88 C215 80, 255 78, 285 80" stroke="#00A0DE" stroke-width="3" stroke-linecap="round" />
    <path d="M175 92 C220 85, 255 83, 280 84" stroke="#FFFFFF" stroke-width="1.2" stroke-linecap="round" />

    <!-- Airbox & T-Cam -->
    <path d="M272 48 C272 38, 292 36, 305 38 C318 40, 322 48, 322 62 L275 62 Z" fill="#08142A" />
    <ellipse cx="295" cy="46" rx="9" ry="6" fill="#030812" stroke="#00A0DE" stroke-width="1.5" />
    <rect x="290" y="31" width="10" height="6" rx="1" fill="#00A0DE" /> <!-- Cyan T-Cam -->

    <!-- Sidepod Sculpture & Cooling Louvres -->
    <path d="M135 108 C170 82, 230 76, 310 74 C345 74, 380 72, 400 80 C418 87, 430 102, 432 118 L380 120 C340 120, 270 122, 210 120 C170 119, 145 116, 135 108 Z" fill="url(#wil-body)" />
    <path d="M270 120 C330 121, 380 118, 412 108 C405 98, 385 92, 350 94 C300 96, 250 108, 220 120 Z" fill="#050C1A" opacity="0.85" />
    <path d="M255 90 C315 86, 365 86, 405 92" stroke="#00A0DE" stroke-width="2.8" stroke-linecap="round" />

    <!-- Cockpit & Driver Halo -->
    <path d="M312 62 C325 62, 355 64, 375 75 L320 75 Z" fill="#040812" />
    <circle cx="340" cy="62" r="8" fill="#00A0DE" /> <!-- Albon Cyan Helmet -->
    <path d="M336 61 L346 61 L344 64 L337 64 Z" fill="#FFFFFF" />
    <circle cx="340" cy="62" r="8" fill="none" stroke="#FFF" stroke-width="1.2" />
    <path d="M316 62 C328 56, 362 58, 376 72 C376 75, 372 76, 368 74 C356 65, 332 63, 318 67 Z" fill="#0B182E" stroke="#00A0DE" stroke-width="1" />
    <path d="M374 72 L388 78 L386 82 L372 75 Z" fill="#0B182E" />
    <rect x="368" y="72" width="6" height="3" rx="1" fill="#FFFFFF" stroke="#000" stroke-width="0.5" />

    <!-- Slender Nosecone -->
    <path d="M395 76 C425 80, 475 95, 545 116 L545 120 C520 118, 470 114, 425 106 C408 102, 398 90, 395 76 Z" fill="url(#wil-body)" />
    <path d="M540 115 L562 121 L560 124 L538 119 Z" fill="#071224" />
    <path d="M420 95 C460 104, 500 112, 535 117" stroke="#00A0DE" stroke-width="2.2" />
    <!-- Williams 'W' Accent -->
    <path d="M472 100 L475 106 L478 102 L481 106 L484 100" stroke="#FFFFFF" stroke-width="1.2" stroke-linecap="round" stroke-linejoin="round" />

    <!-- Front Wing Cascade -->
    <path d="M500 124 L576 126 L574 130 L496 128 Z" fill="#071224" />
    <path d="M508 121 L572 123 L571 125 L506 123 Z" fill="#041E42" />
    <path d="M515 118 L568 120 L567 122 L514 120 Z" fill="#00A0DE" />
    <path d="M552 112 C564 114, 576 120, 580 131 L572 132 C568 124, 560 119, 550 116 Z" fill="#050E1C" stroke="#00A0DE" stroke-width="1.2" />

    <!-- Wheels & Suspension -->
    <g>
      <circle cx="115" cy="105" r="28" fill="url(#wil-tire)" stroke="#000" stroke-width="2" />
      <circle cx="115" cy="105" r="24.5" fill="none" stroke="#00A0DE" stroke-width="1.8" />
      <circle cx="115" cy="105" r="17" fill="url(#wil-wheel)" stroke="#192A47" stroke-width="1.5" />
      <circle cx="115" cy="105" r="11" fill="none" stroke="#00A0DE" stroke-width="1" stroke-dasharray="3, 3" />
      <circle cx="115" cy="105" r="4.5" fill="#00A0DE" stroke="#FFF" stroke-width="0.8" />
    </g>

    <line x1="430" y1="94" x2="480" y2="104" stroke="#121F36" stroke-width="2.5" />
    <line x1="435" y1="108" x2="482" y2="108" stroke="#121F36" stroke-width="2.2" />

    <g>
      <circle cx="485" cy="105" r="28" fill="url(#wil-tire)" stroke="#000" stroke-width="2" />
      <circle cx="485" cy="105" r="24.5" fill="none" stroke="#00A0DE" stroke-width="1.8" />
      <circle cx="485" cy="105" r="17" fill="url(#wil-wheel)" stroke="#192A47" stroke-width="1.5" />
      <circle cx="485" cy="105" r="11" fill="none" stroke="#00A0DE" stroke-width="1" stroke-dasharray="3, 3" />
      <circle cx="485" cy="105" r="4.5" fill="#00A0DE" stroke="#FFF" stroke-width="0.8" />
      <path d="M462 82 C462 76, 474 74, 485 75 L484 78 C476 77, 466 79, 465 84 Z" fill="#060F20" />
    </g>
  </g>
</svg>
